<?xml version="1.0" encoding="utf-8"?>
<!-- Generator: Adobe Illustrator 21.1.0, SVG Export Plug-In . SVG Version: 6.00 Build 0)  -->
<svg version="1.1" id="Layer_1" xmlns="http://www.w3.org/2000/svg" xmlns:xlink="http://www.w3.org/1999/xlink" x="0px" y="0px"
	 viewBox="0 0 72 72" style="enable-background:new 0 0 72 72;" xml:space="preserve">
<style type="text/css">
	.st0{fill:#316565;}
	.st1{fill:#FFFFFF;}
</style>
<rect x="0" y="0" class="st0" width="72" height="72"/>
<path class="st1" d="M35.9,65.4l20.8-8.5l8.7-20.8l-8.5-21L36.1,6.6l-20.8,8.5v0.2L6.6,36.1l8.5,20.8L35.9,65.4z M23,22.9L23,22.9
	l13.1-5.5l13.1,5.5l5.5,13.1l-5.5,13.1l-13.1,5.5L23,49.2l-5.5-13.1L23,22.9z"/>
<polygon class="st1" points="36,46.9 43.7,43.7 46.9,35.9 43.7,28.3 36,25.1 28.4,28.3 25.2,35.9 28.2,43.7 "/>
</svg>
